ffmpeg version 3.4.8-0ubuntu0.2 Copyright (c) 2000-2020 the FFmpeg developers
  built with gcc 7 (Ubuntu 7.5.0-3ubuntu1~18.04)
  configuration: --prefix=/usr --extra-version=0ubuntu0.2 --toolchain=hardened --libdir=/usr/lib/x86_64-linux-gnu --incdir=/usr/include/x86_64-linux-gnu --enable-gpl --disable-stripping --enable-avresample --enable-avisynth --enable-gnutls --enable-ladspa --enable-libass --enable-libbluray --enable-libbs2b --enable-libcaca --enable-libcdio --enable-libflite --enable-libfontconfig --enable-libfreetype --enable-libfribidi --enable-libgme --enable-libgsm --enable-libmp3lame --enable-libmysofa --enable-libopenjpeg --enable-libopenmpt --enable-libopus --enable-libpulse --enable-librubberband --enable-librsvg --enable-libshine --enable-libsnappy --enable-libsoxr --enable-libspeex --enable-libssh --enable-libtheora --enable-libtwolame --enable-libvorbis --enable-libvpx --enable-libwavpack --enable-libwebp --enable-libx265 --enable-libxml2 --enable-libxvid --enable-libzmq --enable-libzvbi --enable-omx --enable-openal --enable-opengl --enable-sdl2 --enable-libdc1394 --enable-libdrm --enable-libiec61883 --enable-chromaprint --enable-frei0r --enable-libopencv --enable-libx264 --enable-shared
  libavutil      55. 78.100 / 55. 78.100
  libavcodec     57.107.100 / 57.107.100
  libavformat    57. 83.100 / 57. 83.100
  libavdevice    57. 10.100 / 57. 10.100
  libavfilter     6.107.100 /  6.107.100
  libavresample   3.  7.  0 /  3.  7.  0
  libswscale      4.  8.100 /  4.  8.100
  libswresample   2.  9.100 /  2.  9.100
  libpostproc    54.  7.100 / 54.  7.100
Input #0, mov,mp4,m4a,3gp,3g2,mj2, from '../.././Samples/esign_2_high.qt':
  Metadata:
    creation_time   : 2005-05-09T18:22:58.000000Z
  Duration: 00:04:01.12, start: 0.000000, bitrate: 2525 kb/s
    Stream #0:0(eng): Audio: aac (LC) (mp4a / 0x6134706D), 44100 Hz, stereo, fltp, 111 kb/s (default)
    Metadata:
      creation_time   : 2005-05-09T18:22:58.000000Z
      handler_name    : Apple Alias Data Handler
    Stream #0:1(eng): Video: mpeg4 (Advanced Simple Profile) (mp4v / 0x7634706D), yuv420p, 720x404 [SAR 1:1 DAR 180:101], 2344 kb/s, 25 fps, 25 tbr, 600 tbn, 1k tbc (default)
    Metadata:
      creation_time   : 2005-05-09T18:22:58.000000Z
      handler_name    : Apple Alias Data Handler
      encoder         : MPEG-4 Video
    Stream #0:2(eng): Data: none (rtp  / 0x20707472), 56 kb/s
    Metadata:
      creation_time   : 2005-05-09T18:22:58.000000Z
      handler_name    : Apple Alias Data Handler
    Stream #0:3(eng): Data: none (rtp  / 0x20707472), 8 kb/s
    Metadata:
      creation_time   : 2005-05-09T18:22:58.000000Z
      handler_name    : Apple Alias Data Handler
Stream mapping:
  Stream #0:1 -> #0:0 (mpeg4 (native) -> h264 (libx264))
  Stream #0:0 -> #0:1 (aac (native) -> aac (native))
Press [q] to stop, [?] for help
[libx264 @ 0x55e4de6b30e0] using SAR=1/1
[libx264 @ 0x55e4de6b30e0] using cpu capabilities: MMX2 SSE2Fast SSSE3 SSE4.2 AVX FMA3 BMI2 AVX2
[libx264 @ 0x55e4de6b30e0] profile High, level 3.0
[libx264 @ 0x55e4de6b30e0] 264 - core 152 r2854 e9a5903 - H.264/MPEG-4 AVC codec - Copyleft 2003-2017 - http://www.videolan.org/x264.html - options: cabac=1 ref=3 deblock=1:0:0 analyse=0x3:0x113 me=hex subme=7 psy=1 psy_rd=1.00:0.00 mixed_ref=1 me_range=16 chroma_me=1 trellis=1 8x8dct=1 cqm=0 deadzone=21,11 fast_pskip=1 chroma_qp_offset=-2 threads=6 lookahead_threads=1 sliced_threads=0 nr=0 decimate=1 interlaced=0 bluray_compat=0 constrained_intra=0 bframes=3 b_pyramid=2 b_adapt=1 b_bias=0 direct=1 weightb=1 open_gop=0 weightp=2 keyint=250 keyint_min=25 scenecut=40 intra_refresh=0 rc_lookahead=40 rc=crf mbtree=1 crf=23.0 qcomp=0.60 qpmin=0 qpmax=69 qpstep=4 ip_ratio=1.40 aq=1:1.00
Output #0, mov, to '/home/aleksandr/Pract/Samples/esign_2_high.qt_tc/output1.mov':
  Metadata:
    encoder         : Lavf57.83.100
    Stream #0:0(eng): Video: h264 (libx264) (avc1 / 0x31637661), yuv420p, 720x404 [SAR 1:1 DAR 180:101], q=-1--1, 25 fps, 12800 tbn, 25 tbc (default)
    Metadata:
      creation_time   : 2005-05-09T18:22:58.000000Z
      handler_name    : Apple Alias Data Handler
      encoder         : Lavc57.107.100 libx264
    Side data:
      cpb: bitrate max/min/avg: 0/0/0 buffer size: 0 vbv_delay: -1
    Stream #0:1(eng): Audio: aac (LC) (mp4a / 0x6134706D), 44100 Hz, stereo, fltp, 128 kb/s (default)
    Metadata:
      creation_time   : 2005-05-09T18:22:58.000000Z
      handler_name    : Apple Alias Data Handler
      encoder         : Lavc57.107.100 aac
frame=   69 fps=0.0 q=28.0 size=       0kB time=00:00:03.87 bitrate=   0.1kbits/s speed=7.69x    frame=  103 fps=103 q=28.0 size=     256kB time=00:00:05.20 bitrate= 403.3kbits/s speed=5.18x    frame=  128 fps= 85 q=28.0 size=     512kB time=00:00:06.22 bitrate= 674.1kbits/s speed=4.11x    frame=  154 fps= 76 q=28.0 size=    1024kB time=00:00:07.26 bitrate=1154.2kbits/s speed= 3.6x    frame=  181 fps= 71 q=28.0 size=    1536kB time=00:00:08.35 bitrate=1505.3kbits/s speed=3.29x    frame=  207 fps= 68 q=28.0 size=    1792kB time=00:00:09.38 bitrate=1564.9kbits/s speed=3.06x    frame=  229 fps= 64 q=28.0 size=    2304kB time=00:00:10.26 bitrate=1839.1kbits/s speed=2.87x    frame=  258 fps= 63 q=28.0 size=    2816kB time=00:00:11.42 bitrate=2019.3kbits/s speed=2.78x    frame=  288 fps= 63 q=28.0 size=    3072kB time=00:00:12.63 bitrate=1992.3kbits/s speed=2.74x    frame=  317 fps= 62 q=28.0 size=    3584kB time=00:00:13.79 bitrate=2128.7kbits/s speed=2.69x    frame=  343 fps= 61 q=28.0 size=    3840kB time=00:00:14.83 bitrate=2120.1kbits/s speed=2.63x    frame=  367 fps= 60 q=28.0 size=    4352kB time=00:00:15.78 bitrate=2257.9kbits/s speed=2.56x    frame=  390 fps= 59 q=28.0 size=    4608kB time=00:00:16.71 bitrate=2257.9kbits/s speed=2.51x    frame=  419 fps= 58 q=28.0 size=    5376kB time=00:00:17.87 bitrate=2463.2kbits/s speed=2.48x    frame=  441 fps= 57 q=28.0 size=    5632kB time=00:00:18.76 bitrate=2459.1kbits/s speed=2.43x    frame=  466 fps= 56 q=28.0 size=    6144kB time=00:00:19.73 bitrate=2550.1kbits/s speed=2.39x    frame=  496 fps= 57 q=28.0 size=    6656kB time=00:00:20.94 bitrate=2603.4kbits/s speed=2.39x    frame=  525 fps= 57 q=28.0 size=    7168kB time=00:00:22.10 bitrate=2656.4kbits/s speed=2.38x    frame=  553 fps= 57 q=28.0 size=    7424kB time=00:00:23.21 bitrate=2619.2kbits/s speed=2.38x    frame=  580 fps= 56 q=28.0 size=    7936kB time=00:00:24.31 bitrate=2674.1kbits/s speed=2.36x    frame=  604 fps= 56 q=28.0 size=    8192kB time=00:00:25.26 bitrate=2656.4kbits/s speed=2.34x    frame=  632 fps= 56 q=28.0 size=    8704kB time=00:00:26.35 bitrate=2705.5kbits/s speed=2.33x    frame=  662 fps= 56 q=28.0 size=    9216kB time=00:00:27.58 bitrate=2736.9kbits/s speed=2.33x    frame=  692 fps= 56 q=28.0 size=    9472kB time=00:00:28.81 bitrate=2692.8kbits/s speed=2.34x    frame=  724 fps= 56 q=28.0 size=    9984kB time=00:00:30.06 bitrate=2720.0kbits/s speed=2.34x    frame=  755 fps= 57 q=28.0 size=   10496kB time=00:00:31.30 bitrate=2747.0kbits/s speed=2.34x    frame=  786 fps= 57 q=28.0 size=   11008kB time=00:00:32.55 bitrate=2770.1kbits/s speed=2.35x    frame=  816 fps= 57 q=28.0 size=   11520kB time=00:00:33.73 bitrate=2797.2kbits/s speed=2.35x    frame=  848 fps= 57 q=28.0 size=   11776kB time=00:00:35.03 bitrate=2753.2kbits/s speed=2.35x    frame=  879 fps= 57 q=28.0 size=   12288kB time=00:00:36.29 bitrate=2773.7kbits/s speed=2.36x    frame=  910 fps= 57 q=28.0 size=   12800kB time=00:00:37.50 bitrate=2796.2kbits/s speed=2.36x    frame=  938 fps= 57 q=28.0 size=   13312kB time=00:00:38.63 bitrate=2822.4kbits/s speed=2.35x    frame=  964 fps= 57 q=28.0 size=   13568kB time=00:00:39.65 bitrate=2802.6kbits/s speed=2.34x    frame=  994 fps= 57 q=28.0 size=   14080kB time=00:00:40.89 bitrate=2820.8kbits/s speed=2.35x    frame= 1025 fps= 57 q=28.0 size=   14336kB time=00:00:42.09 bitrate=2789.7kbits/s speed=2.35x    frame= 1065 fps= 58 q=28.0 size=   14592kB time=00:00:43.69 bitrate=2735.4kbits/s speed=2.37x    frame= 1091 fps= 58 q=28.0 size=   14848kB time=00:00:44.72 bitrate=2719.8kbits/s speed=2.36x    frame= 1119 fps= 57 q=28.0 size=   15360kB time=00:00:45.85 bitrate=2743.8kbits/s speed=2.35x    frame= 1163 fps= 58 q=28.0 size=   15360kB time=00:00:47.62 bitrate=2642.1kbits/s speed=2.38x    frame= 1209 fps= 59 q=28.0 size=   15616kB time=00:00:49.45 bitrate=2586.5kbits/s speed=2.41x    frame= 1262 fps= 60 q=28.0 size=   15872kB time=00:00:51.59 bitrate=2520.1kbits/s speed=2.46x    frame= 1320 fps= 61 q=28.0 size=   15872kB time=00:00:53.91 bitrate=2411.6kbits/s speed=2.51x    frame= 1372 fps= 62 q=28.0 size=   16128kB time=00:00:55.98 bitrate=2360.0kbits/s speed=2.54x    frame= 1418 fps= 63 q=28.0 size=   16128kB time=00:00:57.81 bitrate=2285.1kbits/s speed=2.57x    frame= 1459 fps= 63 q=28.0 size=   16384kB time=00:00:59.44 bitrate=2257.9kbits/s speed=2.58x    frame= 1494 fps= 63 q=28.0 size=   16640kB time=00:01:00.85 bitrate=2239.8kbits/s speed=2.58x    frame= 1525 fps= 63 q=28.0 size=   16640kB time=00:01:02.11 bitrate=2194.6kbits/s speed=2.58x    frame= 1555 fps= 63 q=28.0 size=   17152kB time=00:01:03.29 bitrate=2219.8kbits/s speed=2.57x    frame= 1584 fps= 63 q=28.0 size=   17664kB time=00:01:04.43 bitrate=2245.7kbits/s speed=2.57x    frame= 1618 fps= 63 q=28.0 size=   17920kB time=00:01:05.82 bitrate=2230.0kbits/s speed=2.57x    frame= 1657 fps= 63 q=28.0 size=   18176kB time=00:01:07.38 bitrate=2209.7kbits/s speed=2.58x    frame= 1699 fps= 64 q=28.0 size=   18432kB time=00:01:09.07 bitrate=2185.8kbits/s speed=2.59x    frame= 1728 fps= 64 q=28.0 size=   18688kB time=00:01:10.21 bitrate=2180.3kbits/s speed=2.59x    frame= 1759 fps= 64 q=28.0 size=   19200kB time=00:01:11.47 bitrate=2200.7kbits/s speed=2.59x    frame= 1790 fps= 64 q=28.0 size=   19456kB time=00:01:12.70 bitrate=2192.3kbits/s speed=2.58x    frame= 1822 fps= 64 q=28.0 size=   19968kB time=00:01:13.97 bitrate=2211.1kbits/s speed=2.58x    frame= 1851 fps= 63 q=28.0 size=   20480kB time=00:01:15.13 bitrate=2232.8kbits/s speed=2.58x    frame= 1881 fps= 63 q=28.0 size=   20992kB time=00:01:16.34 bitrate=2252.4kbits/s speed=2.57x    frame= 1908 fps= 63 q=28.0 size=   21504kB time=00:01:17.43 bitrate=2274.8kbits/s speed=2.57x    frame= 1936 fps= 63 q=28.0 size=   22016kB time=00:01:18.55 bitrate=2296.0kbits/s speed=2.56x    frame= 1968 fps= 63 q=28.0 size=   22528kB time=00:01:19.83 bitrate=2311.8kbits/s speed=2.56x    frame= 2000 fps= 63 q=28.0 size=   22784kB time=00:01:21.10 bitrate=2301.2kbits/s speed=2.56x    frame= 2032 fps= 63 q=28.0 size=   23296kB time=00:01:22.38 bitrate=2316.5kbits/s speed=2.56x    frame= 2068 fps= 63 q=28.0 size=   23808kB time=00:01:23.80 bitrate=2327.4kbits/s speed=2.56x    frame= 2103 fps= 63 q=28.0 size=   24064kB time=00:01:25.21 bitrate=2313.3kbits/s speed=2.57x    frame= 2139 fps= 63 q=28.0 size=   24576kB time=00:01:26.65 bitrate=2323.3kbits/s speed=2.57x    frame= 2176 fps= 64 q=28.0 size=   24576kB time=00:01:28.14 bitrate=2284.1kbits/s speed=2.58x    frame= 2201 fps= 63 q=28.0 size=   25088kB time=00:01:29.14 bitrate=2305.6kbits/s speed=2.57x    frame= 2225 fps= 63 q=28.0 size=   25600kB time=00:01:30.09 bitrate=2327.8kbits/s speed=2.56x    frame= 2249 fps= 63 q=28.0 size=   26112kB time=00:01:31.06 bitrate=2348.9kbits/s speed=2.55x    frame= 2278 fps= 63 q=28.0 size=   26624kB time=00:01:32.22 bitrate=2364.8kbits/s speed=2.55x    frame= 2308 fps= 63 q=28.0 size=   26880kB time=00:01:33.43 bitrate=2356.7kbits/s speed=2.54x    frame= 2339 fps= 63 q=28.0 size=   27392kB time=00:01:34.66 bitrate=2370.3kbits/s speed=2.54x    frame= 2369 fps= 63 q=28.0 size=   27904kB time=00:01:35.87 bitrate=2384.2kbits/s speed=2.54x    frame= 2400 fps= 63 q=28.0 size=   28160kB time=00:01:37.10 bitrate=2375.6kbits/s speed=2.54x    frame= 2431 fps= 63 q=28.0 size=   28672kB time=00:01:38.35 bitrate=2388.0kbits/s speed=2.54x    frame= 2460 fps= 63 q=28.0 size=   29440kB time=00:01:39.49 bitrate=2423.9kbits/s speed=2.53x    frame= 2489 fps= 62 q=28.0 size=   29952kB time=00:01:40.65 bitrate=2437.6kbits/s speed=2.53x    frame= 2517 fps= 62 q=28.0 size=   30464kB time=00:01:41.79 bitrate=2451.6kbits/s speed=2.52x    frame= 2546 fps= 62 q=28.0 size=   30976kB time=00:01:42.95 bitrate=2464.7kbits/s speed=2.52x    frame= 2574 fps= 62 q=28.0 size=   31488kB time=00:01:44.07 bitrate=2478.6kbits/s speed=2.52x    frame= 2603 fps= 62 q=28.0 size=   32000kB time=00:01:45.23 bitrate=2491.1kbits/s speed=2.51x    frame= 2635 fps= 62 q=28.0 size=   32768kB time=00:01:46.50 bitrate=2520.3kbits/s speed=2.51x    frame= 2669 fps= 62 q=28.0 size=   33280kB time=00:01:47.87 bitrate=2527.2kbits/s speed=2.52x    frame= 2709 fps= 62 q=28.0 size=   33536kB time=00:01:49.45 bitrate=2509.9kbits/s speed=2.52x    frame= 2763 fps= 63 q=28.0 size=   33792kB time=00:01:51.64 bitrate=2479.6kbits/s speed=2.54x    frame= 2853 fps= 64 q=28.0 size=   34048kB time=00:01:55.24 bitrate=2420.3kbits/s speed= 2.6x    frame= 2901 fps= 65 q=28.0 size=   34048kB time=00:01:57.14 bitrate=2381.0kbits/s speed=2.61x    frame= 2940 fps= 65 q=28.0 size=   34304kB time=00:01:58.72 bitrate=2367.0kbits/s speed=2.61x    frame= 2977 fps= 65 q=25.0 size=   34560kB time=00:02:00.18 bitrate=2355.6kbits/s speed=2.62x    frame= 3012 fps= 65 q=28.0 size=   34816kB time=00:02:01.55 bitrate=2346.3kbits/s speed=2.62x    frame= 3040 fps= 65 q=28.0 size=   35328kB time=00:02:02.71 bitrate=2358.3kbits/s speed=2.62x    frame= 3073 fps= 65 q=28.0 size=   35584kB time=00:02:04.01 bitrate=2350.5kbits/s speed=2.62x    frame= 3098 fps= 65 q=28.0 size=   36352kB time=00:02:05.03 bitrate=2381.6kbits/s speed=2.61x    frame= 3122 fps= 64 q=28.0 size=   37120kB time=00:02:05.99 bitrate=2413.6kbits/s speed= 2.6x    frame= 3144 fps= 64 q=28.0 size=   37888kB time=00:02:06.87 bitrate=2446.4kbits/s speed=2.59x    frame= 3167 fps= 64 q=28.0 size=   38400kB time=00:02:07.77 bitrate=2461.8kbits/s speed=2.58x    frame= 3186 fps= 64 q=28.0 size=   39168kB time=00:02:08.54 bitrate=2496.1kbits/s speed=2.57x    frame= 3214 fps= 64 q=28.0 size=   39936kB time=00:02:09.66 bitrate=2523.2kbits/s speed=2.57x    frame= 3251 fps= 64 q=28.0 size=   40192kB time=00:02:11.14 bitrate=2510.6kbits/s speed=2.57x    frame= 3283 fps= 64 q=28.0 size=   40704kB time=00:02:12.40 bitrate=2518.5kbits/s speed=2.57x    frame= 3315 fps= 64 q=28.0 size=   40960kB time=00:02:13.70 bitrate=2509.7kbits/s speed=2.57x    frame= 3346 fps= 64 q=28.0 size=   41472kB time=00:02:14.95 bitrate=2517.4kbits/s speed=2.57x    frame= 3380 fps= 64 q=28.0 size=   41728kB time=00:02:16.30 bitrate=2507.9kbits/s speed=2.57x    frame= 3410 fps= 64 q=28.0 size=   42240kB time=00:02:17.50 bitrate=2516.4kbits/s speed=2.57x    frame= 3437 fps= 64 q=28.0 size=   42752kB time=00:02:18.59 bitrate=2526.9kbits/s speed=2.57x    frame= 3466 fps= 64 q=28.0 size=   43264kB time=00:02:19.73 bitrate=2536.3kbits/s speed=2.56x    frame= 3497 fps= 64 q=28.0 size=   44032kB time=00:02:20.99 bitrate=2558.4kbits/s speed=2.56x    frame= 3521 fps= 63 q=28.0 size=   44800kB time=00:02:21.94 bitrate=2585.5kbits/s speed=2.56x    frame= 3545 fps= 63 q=28.0 size=   45312kB time=00:02:22.91 bitrate=2597.3kbits/s speed=2.55x    frame= 3572 fps= 63 q=28.0 size=   45824kB time=00:02:23.98 bitrate=2607.1kbits/s speed=2.55x    frame= 3600 fps= 63 q=28.0 size=   46592kB time=00:02:25.12 bitrate=2630.0kbits/s speed=2.54x    frame= 3634 fps= 63 q=28.0 size=   47104kB time=00:02:26.47 bitrate=2634.5kbits/s speed=2.55x    frame= 3666 fps= 63 q=28.0 size=   47616kB time=00:02:27.74 bitrate=2640.1kbits/s speed=2.55x    frame= 3697 fps= 63 q=28.0 size=   48128kB time=00:02:28.97 bitrate=2646.4kbits/s speed=2.54x    frame= 3728 fps= 63 q=28.0 size=   48384kB time=00:02:30.23 bitrate=2638.3kbits/s speed=2.54x    frame= 3761 fps= 63 q=28.0 size=   49152kB time=00:02:31.53 bitrate=2657.2kbits/s speed=2.54x    frame= 3789 fps= 63 q=28.0 size=   49664kB time=00:02:32.67 bitrate=2664.9kbits/s speed=2.54x    frame= 3819 fps= 63 q=28.0 size=   50176kB time=00:02:33.87 bitrate=2671.2kbits/s speed=2.54x    frame= 3852 fps= 63 q=28.0 size=   50688kB time=00:02:35.15 bitrate=2676.3kbits/s speed=2.54x    frame= 3884 fps= 63 q=28.0 size=   51200kB time=00:02:36.47 bitrate=2680.4kbits/s speed=2.54x    frame= 3914 fps= 63 q=28.0 size=   51968kB time=00:02:37.66 bitrate=2700.2kbits/s speed=2.54x    frame= 3942 fps= 63 q=28.0 size=   52480kB time=00:02:38.77 bitrate=2707.7kbits/s speed=2.54x    frame= 3976 fps= 63 q=28.0 size=   53248kB time=00:02:40.14 bitrate=2723.8kbits/s speed=2.54x    frame= 4010 fps= 63 q=28.0 size=   53760kB time=00:02:41.51 bitrate=2726.6kbits/s speed=2.54x    frame= 4039 fps= 63 q=28.0 size=   54528kB time=00:02:42.67 bitrate=2745.9kbits/s speed=2.54x    frame= 4066 fps= 63 q=28.0 size=   55296kB time=00:02:43.74 bitrate=2766.4kbits/s speed=2.53x    frame= 4100 fps= 63 q=28.0 size=   56064kB time=00:02:45.11 bitrate=2781.5kbits/s speed=2.53x    frame= 4137 fps= 63 q=28.0 size=   56320kB time=00:02:46.57 bitrate=2769.7kbits/s speed=2.54x    frame= 4173 fps= 63 q=28.0 size=   56576kB time=00:02:48.01 bitrate=2758.4kbits/s speed=2.54x    frame= 4203 fps= 63 q=28.0 size=   57088kB time=00:02:49.22 bitrate=2763.5kbits/s speed=2.54x    frame= 4227 fps= 63 q=28.0 size=   57856kB time=00:02:50.17 bitrate=2785.0kbits/s speed=2.53x    frame= 4245 fps= 63 q=28.0 size=   58624kB time=00:02:50.89 bitrate=2810.1kbits/s speed=2.52x    frame= 4263 fps= 62 q=28.0 size=   59648kB time=00:02:51.61 bitrate=2847.2kbits/s speed=2.51x    frame= 4281 fps= 62 q=28.0 size=   60416kB time=00:02:52.33 bitrate=2871.8kbits/s speed= 2.5x    frame= 4298 fps= 62 q=28.0 size=   61184kB time=00:02:53.03 bitrate=2896.6kbits/s speed= 2.5x    frame= 4319 fps= 62 q=28.0 size=   62464kB time=00:02:53.87 bitrate=2943.0kbits/s speed=2.49x    frame= 4358 fps= 62 q=28.0 size=   63232kB time=00:02:55.42 bitrate=2952.8kbits/s speed=2.49x    frame= 4402 fps= 62 q=28.0 size=   63744kB time=00:02:57.19 bitrate=2947.0kbits/s speed= 2.5x    frame= 4431 fps= 62 q=28.0 size=   64256kB time=00:02:58.35 bitrate=2951.4kbits/s speed= 2.5x    frame= 4461 fps= 62 q=28.0 size=   64512kB time=00:02:59.55 bitrate=2943.2kbits/s speed= 2.5x    frame= 4489 fps= 62 q=28.0 size=   65024kB time=00:03:00.67 bitrate=2948.3kbits/s speed=2.49x    frame= 4514 fps= 62 q=28.0 size=   65536kB time=00:03:01.67 bitrate=2955.2kbits/s speed=2.49x    frame= 4542 fps= 62 q=28.0 size=   66048kB time=00:03:02.78 bitrate=2960.1kbits/s speed=2.49x    frame= 4573 fps= 62 q=28.0 size=   66560kB time=00:03:04.01 bitrate=2963.1kbits/s speed=2.49x    frame= 4599 fps= 62 q=28.0 size=   67072kB time=00:03:05.06 bitrate=2969.0kbits/s speed=2.48x    frame= 4621 fps= 62 q=28.0 size=   67584kB time=00:03:05.94 bitrate=2977.5kbits/s speed=2.48x    frame= 4648 fps= 62 q=28.0 size=   68096kB time=00:03:07.03 bitrate=2982.5kbits/s speed=2.48x    frame= 4680 fps= 62 q=28.0 size=   68608kB time=00:03:08.31 bitrate=2984.6kbits/s speed=2.48x    frame= 4714 fps= 62 q=28.0 size=   69120kB time=00:03:09.66 bitrate=2985.5kbits/s speed=2.48x    frame= 4747 fps= 62 q=28.0 size=   69376kB time=00:03:10.98 bitrate=2975.8kbits/s speed=2.48x    frame= 4780 fps= 62 q=28.0 size=   69888kB time=00:03:12.30 bitrate=2977.1kbits/s speed=2.48x    frame= 4810 fps= 62 q=28.0 size=   70144kB time=00:03:13.51 bitrate=2969.4kbits/s speed=2.48x    frame= 4828 fps= 61 q=28.0 size=   71168kB time=00:03:14.23 bitrate=3001.6kbits/s speed=2.47x    frame= 4848 fps= 61 q=28.0 size=   71936kB time=00:03:15.02 bitrate=3021.7kbits/s speed=2.46x    frame= 4874 fps= 61 q=28.0 size=   72448kB time=00:03:16.04 bitrate=3027.3kbits/s speed=2.46x    frame= 4902 fps= 61 q=28.0 size=   72960kB time=00:03:17.18 bitrate=3031.1kbits/s speed=2.46x    frame= 4933 fps= 61 q=28.0 size=   73472kB time=00:03:18.43 bitrate=3033.1kbits/s speed=2.46x    frame= 4972 fps= 61 q=28.0 size=   73984kB time=00:03:19.99 bitrate=3030.5kbits/s speed=2.46x    frame= 5009 fps= 61 q=28.0 size=   74496kB time=00:03:21.47 bitrate=3029.0kbits/s speed=2.47x    frame= 5038 fps= 61 q=28.0 size=   75008kB time=00:03:22.59 bitrate=3033.0kbits/s speed=2.47x    frame= 5069 fps= 61 q=28.0 size=   75520kB time=00:03:23.87 bitrate=3034.6kbits/s speed=2.47x    frame= 5099 fps= 61 q=28.0 size=   76032kB time=00:03:25.07 bitrate=3037.1kbits/s speed=2.47x    frame= 5128 fps= 61 q=28.0 size=   76544kB time=00:03:26.23 bitrate=3040.4kbits/s speed=2.46x    frame= 5157 fps= 61 q=28.0 size=   77056kB time=00:03:27.37 bitrate=3043.9kbits/s speed=2.46x    frame= 5188 fps= 61 q=28.0 size=   77824kB time=00:03:28.63 bitrate=3055.8kbits/s speed=2.46x    frame= 5218 fps= 61 q=28.0 size=   78336kB time=00:03:29.83 bitrate=3058.2kbits/s speed=2.46x    frame= 5248 fps= 61 q=28.0 size=   79104kB time=00:03:31.02 bitrate=3070.9kbits/s speed=2.46x    frame= 5278 fps= 61 q=28.0 size=   79616kB time=00:03:32.23 bitrate=3073.1kbits/s speed=2.46x    frame= 5308 fps= 61 q=28.0 size=   80128kB time=00:03:33.41 bitrate=3075.7kbits/s speed=2.46x    frame= 5337 fps= 61 q=28.0 size=   80896kB time=00:03:34.59 bitrate=3088.1kbits/s speed=2.46x    frame= 5368 fps= 61 q=28.0 size=   81152kB time=00:03:35.82 bitrate=3080.2kbits/s speed=2.46x    frame= 5402 fps= 61 q=28.0 size=   81664kB time=00:03:37.19 bitrate=3080.1kbits/s speed=2.46x    frame= 5434 fps= 61 q=28.0 size=   81920kB time=00:03:38.47 bitrate=3071.7kbits/s speed=2.46x    frame= 5456 fps= 61 q=28.0 size=   82176kB time=00:03:39.33 bitrate=3069.2kbits/s speed=2.46x    frame= 5466 fps= 61 q=28.0 size=   82432kB time=00:03:39.75 bitrate=3072.9kbits/s speed=2.45x    frame= 5491 fps= 61 q=28.0 size=   82688kB time=00:03:40.75 bitrate=3068.5kbits/s speed=2.44x    frame= 5520 fps= 61 q=28.0 size=   83456kB time=00:03:41.91 bitrate=3080.8kbits/s speed=2.44x    frame= 5549 fps= 61 q=28.0 size=   83968kB time=00:03:43.07 bitrate=3083.6kbits/s speed=2.44x    frame= 5579 fps= 61 q=28.0 size=   84224kB time=00:03:44.25 bitrate=3076.6kbits/s speed=2.44x    frame= 5609 fps= 61 q=28.0 size=   84736kB time=00:03:45.44 bitrate=3079.1kbits/s speed=2.44x    frame= 5638 fps= 61 q=28.0 size=   85248kB time=00:03:46.62 bitrate=3081.5kbits/s speed=2.44x    frame= 5667 fps= 61 q=28.0 size=   85760kB time=00:03:47.76 bitrate=3084.5kbits/s speed=2.44x    frame= 5698 fps= 61 q=28.0 size=   86272kB time=00:03:49.04 bitrate=3085.6kbits/s speed=2.44x    frame= 5730 fps= 61 q=28.0 size=   86784kB time=00:03:50.31 bitrate=3086.7kbits/s speed=2.44x    frame= 5764 fps= 61 q=28.0 size=   87040kB time=00:03:51.66 bitrate=3077.9kbits/s speed=2.44x    frame= 5811 fps= 61 q=28.0 size=   87296kB time=00:03:53.52 bitrate=3062.3kbits/s speed=2.45x    frame= 6028 fps= 63 q=-1.0 Lsize=   87693kB time=00:04:01.00 bitrate=2980.8kbits/s speed=2.51x    
video:83773kB audio:3756kB subtitle:0kB other streams:0kB global headers:0kB muxing overhead: 0.187006%
[libx264 @ 0x55e4de6b30e0] frame I:42    Avg QP:21.41  size: 37481
[libx264 @ 0x55e4de6b30e0] frame P:4868  Avg QP:25.60  size: 15435
[libx264 @ 0x55e4de6b30e0] frame B:1118  Avg QP:23.75  size:  8112
[libx264 @ 0x55e4de6b30e0] consecutive B-frames: 73.9%  3.4%  1.9% 20.8%
[libx264 @ 0x55e4de6b30e0] mb I  I16..4: 12.1% 71.8% 16.1%
[libx264 @ 0x55e4de6b30e0] mb P  I16..4:  0.9%  6.1%  1.8%  P16..4: 41.4% 22.9% 14.7%  0.0%  0.0%    skip:12.0%
[libx264 @ 0x55e4de6b30e0] mb B  I16..4:  1.1%  2.4%  0.6%  B16..8: 31.5%  8.9%  2.9%  direct: 5.4%  skip:47.2%  L0:41.4% L1:31.4% BI:27.3%
[libx264 @ 0x55e4de6b30e0] 8x8 transform intra:68.2% inter:79.7%
[libx264 @ 0x55e4de6b30e0] coded y,uvDC,uvAC intra: 61.7% 45.1% 7.8% inter: 46.9% 14.4% 0.4%
[libx264 @ 0x55e4de6b30e0] i16 v,h,dc,p: 37% 27% 27%  9%
[libx264 @ 0x55e4de6b30e0] i8 v,h,dc,ddl,ddr,vr,hd,vl,hu: 19% 14% 41%  4%  5%  5%  3%  4%  4%
[libx264 @ 0x55e4de6b30e0] i4 v,h,dc,ddl,ddr,vr,hd,vl,hu: 60%  6% 13%  3%  4%  4%  3%  4%  3%
[libx264 @ 0x55e4de6b30e0] i8c dc,h,v,p: 59% 25% 14%  2%
[libx264 @ 0x55e4de6b30e0] Weighted P-Frames: Y:4.5% UV:1.4%
[libx264 @ 0x55e4de6b30e0] ref P L0: 69.7% 20.3%  6.7%  3.2%  0.1%
[libx264 @ 0x55e4de6b30e0] ref B L0: 88.9%  9.1%  2.1%
[libx264 @ 0x55e4de6b30e0] ref B L1: 96.9%  3.1%
[libx264 @ 0x55e4de6b30e0] kb/s:2846.15
[aac @ 0x55e4de6b1040] Qavg: 719.713
	Command being timed: "/usr/bin/ffmpeg -i ../.././Samples/esign_2_high.qt -c:v libx264 -f mov /home/aleksandr/Pract/Samples/esign_2_high.qt_tc/output1.mov"
	User time (seconds): 367.98
	System time (seconds): 1.67
	Percent of CPU this job got: 384%
	Elapsed (wall clock) time (h:mm:ss or m:ss): 1:36.03
	Average shared text size (kbytes): 0
	Average unshared data size (kbytes): 0
	Average stack size (kbytes): 0
	Average total size (kbytes): 0
	Maximum resident set size (kbytes): 138824
	Average resident set size (kbytes): 0
	Major (requiring I/O) page faults: 0
	Minor (reclaiming a frame) page faults: 23752
	Voluntary context switches: 53108
	Involuntary context switches: 61845
	Swaps: 0
	File system inputs: 146880
	File system outputs: 175496
	Socket messages sent: 0
	Socket messages received: 0
	Signals delivered: 0
	Page size (bytes): 4096
	Exit status: 0
